<svg id="svg" version="1.1" xmlns="http://www.w3.org/2000/svg" xmlns:xlink="http://www.w3.org/1999/xlink" width="400" height="400" viewBox="0, 0, 400,400"><g id="svgg"><path id="path0" d="M303.400 71.045 C 296.543 72.051,288.016 75.931,283.694 80.011 C 280.815 82.729,280.800 82.714,280.800 77.200 L 280.800 72.400 237.800 72.400 L 194.800 72.400 194.800 78.200 L 194.800 84.000 213.000 84.000 L 231.200 84.000 231.200 130.424 C 231.200 156.194,231.047 176.753,230.856 176.635 C 230.667 176.518,229.654 174.482,228.604 172.111 C 226.352 167.022,225.438 165.007,223.238 160.276 C 222.337 158.338,221.600 156.691,221.600 156.616 C 221.600 156.541,220.857 154.887,219.949 152.940 C 219.040 150.993,217.621 147.870,216.795 146.000 C 215.005 141.951,213.599 138.841,211.759 134.864 C 211.011 133.250,210.400 131.862,210.400 131.780 C 210.400 131.698,209.787 130.319,209.037 128.715 C 205.691 121.556,204.400 118.743,204.400 118.612 C 204.400 118.474,202.853 115.072,200.158 109.285 C 199.411 107.681,198.800 106.304,198.800 106.224 C 198.800 106.145,198.071 104.487,197.181 102.540 C 196.290 100.593,195.400 98.640,195.202 98.200 C 193.663 94.778,192.094 91.342,190.906 88.800 C 190.136 87.150,188.794 84.180,187.925 82.200 C 187.056 80.220,185.891 77.610,185.336 76.400 C 184.780 75.190,184.028 73.530,183.663 72.710 L 183.000 71.221 177.155 71.210 L 171.309 71.200 170.191 73.700 C 168.664 77.116,166.974 80.834,165.356 84.336 C 164.610 85.950,164.000 87.334,164.000 87.412 C 164.000 87.489,163.168 89.318,162.151 91.476 C 161.134 93.634,159.625 96.930,158.798 98.800 C 157.970 100.670,156.711 103.460,156.000 105.000 C 155.289 106.540,154.031 109.330,153.205 111.200 C 152.379 113.070,150.760 116.670,149.608 119.200 C 148.456 121.730,147.063 124.790,146.512 126.000 C 145.961 127.210,145.189 128.920,144.796 129.800 C 144.403 130.680,143.433 132.811,142.641 134.536 C 141.848 136.260,141.200 137.735,141.200 137.812 C 141.200 137.943,139.909 140.756,136.563 147.915 C 135.813 149.519,135.200 150.898,135.200 150.980 C 135.200 151.062,134.549 152.540,133.753 154.264 C 130.041 162.309,129.600 163.279,129.600 163.396 C 129.600 163.464,128.878 165.068,127.996 166.960 L 126.392 170.400 93.396 170.400 L 60.400 170.400 60.400 151.400 L 60.400 132.400 90.211 132.400 L 120.022 132.400 119.911 126.700 L 119.800 121.000 90.100 120.897 L 60.400 120.795 60.400 102.197 L 60.400 83.600 93.800 83.600 L 127.200 83.600 127.200 78.000 L 127.200 72.400 87.400 72.400 L 47.600 72.400 47.600 127.200 L 47.600 182.000 90.906 182.000 L 134.211 182.000 135.080 180.100 C 136.041 178.000,137.323 175.135,139.600 170.000 C 140.429 168.130,141.689 165.340,142.400 163.800 C 143.111 162.260,144.406 159.380,145.277 157.400 C 146.148 155.420,146.992 153.664,147.153 153.497 C 147.435 153.206,206.365 153.032,206.655 153.321 C 206.732 153.399,208.657 157.679,210.931 162.831 C 213.205 167.984,215.348 172.830,215.694 173.600 C 216.039 174.370,216.793 176.080,217.369 177.400 C 217.945 178.720,218.645 180.250,218.924 180.800 L 219.430 181.800 231.714 181.906 L 243.997 182.012 244.098 133.106 L 244.200 84.200 261.900 84.096 C 278.389 83.999,280.629 84.117,279.189 85.007 C 277.258 86.200,274.400 95.864,274.400 101.200 C 274.400 117.660,284.839 126.755,310.200 132.389 C 333.228 137.505,339.400 141.946,339.400 153.400 C 339.400 175.668,303.306 179.006,280.736 158.824 C 277.849 156.243,278.305 156.074,274.249 161.228 C 270.113 166.484,270.086 166.124,274.912 169.842 C 282.446 175.648,292.942 180.694,299.800 181.808 C 300.680 181.950,301.940 182.230,302.600 182.429 C 304.959 183.140,315.017 183.607,319.672 183.221 C 339.794 181.556,352.400 169.510,352.400 151.948 C 352.400 135.291,341.588 126.354,314.200 120.374 C 294.090 115.982,287.401 110.897,287.400 100.000 C 287.399 80.945,314.745 75.598,336.760 90.349 C 342.250 94.027,342.010 93.914,342.541 93.079 C 342.794 92.683,344.325 90.467,345.944 88.155 C 349.340 83.305,349.593 84.229,343.800 80.337 C 337.806 76.310,331.649 73.614,324.600 71.932 C 321.479 71.187,306.659 70.567,303.400 71.045 M177.481 87.700 C 177.689 87.975,178.730 90.180,179.793 92.600 C 180.857 95.020,182.239 98.109,182.864 99.465 C 183.489 100.820,184.000 102.017,184.000 102.125 C 184.000 102.233,184.729 103.913,185.619 105.860 C 186.510 107.807,187.400 109.760,187.598 110.200 C 187.796 110.640,188.497 112.186,189.156 113.635 C 189.816 115.084,191.331 118.504,192.524 121.235 C 193.717 123.966,195.101 127.100,195.599 128.200 C 196.097 129.300,196.825 130.920,197.218 131.800 C 197.610 132.680,198.572 134.788,199.354 136.484 C 200.136 138.180,200.891 140.025,201.032 140.584 L 201.287 141.600 176.993 141.600 L 152.700 141.600 152.920 140.500 C 153.041 139.894,153.765 138.049,154.529 136.400 C 156.384 132.391,157.786 129.293,159.596 125.200 C 160.423 123.330,161.505 120.900,162.002 119.800 C 162.498 118.700,163.225 117.080,163.616 116.200 C 165.320 112.372,166.350 110.069,167.196 108.200 C 167.694 107.100,168.777 104.670,169.604 102.800 C 170.431 100.930,171.695 98.140,172.413 96.600 C 173.131 95.060,174.024 93.080,174.398 92.200 C 174.771 91.320,175.401 89.835,175.799 88.900 C 176.562 87.105,176.866 86.888,177.481 87.700 M188.767 195.760 C 188.675 195.848,186.530 196.127,184.000 196.378 C 146.701 200.093,109.967 222.470,100.901 247.000 C 100.658 247.660,100.067 249.190,99.589 250.400 C 98.801 252.394,98.217 254.344,97.191 258.414 C 96.030 263.018,96.044 275.838,97.215 280.474 C 97.427 281.313,97.784 282.765,98.009 283.700 C 98.633 286.288,101.217 292.716,102.688 295.338 C 103.410 296.625,104.000 297.752,104.000 297.843 C 104.000 298.557,107.813 303.603,107.872 302.968 C 108.853 292.542,110.037 286.987,112.382 281.800 C 112.581 281.360,113.248 279.830,113.864 278.400 C 116.983 271.158,125.380 256.646,131.253 248.348 L 133.130 245.695 130.865 245.436 C 123.764 244.624,121.236 238.484,126.260 234.256 C 128.088 232.718,132.518 230.667,136.200 229.655 C 137.960 229.171,140.570 228.392,142.000 227.925 C 145.285 226.850,154.673 222.085,156.758 220.433 C 162.885 215.581,169.374 218.144,169.909 225.629 C 170.220 229.973,169.814 230.674,163.203 237.200 C 154.692 245.602,150.050 251.223,144.209 260.200 C 142.492 262.840,140.752 265.488,140.343 266.084 C 139.934 266.680,139.600 267.251,139.600 267.352 C 139.600 267.454,138.705 269.086,137.612 270.980 C 135.464 274.699,132.466 280.808,130.438 285.600 C 129.740 287.250,128.995 288.913,128.784 289.295 C 128.573 289.677,128.400 290.189,128.400 290.434 C 128.400 290.679,128.139 291.446,127.821 292.140 C 124.567 299.219,124.641 304.400,127.995 304.400 C 134.345 304.400,156.773 282.740,178.318 255.800 C 181.309 252.060,183.946 248.795,184.178 248.544 C 184.410 248.294,184.960 247.585,185.400 246.970 C 185.840 246.354,187.161 244.673,188.334 243.233 C 189.508 241.792,191.648 238.811,193.088 236.607 C 199.188 227.274,199.690 226.605,203.505 222.695 C 209.314 216.742,215.421 216.049,218.735 220.964 C 220.889 224.159,220.428 227.033,216.927 232.245 C 209.853 242.775,207.829 245.914,203.930 252.400 C 200.422 258.234,196.824 264.404,194.729 268.177 C 191.803 273.445,186.888 284.282,185.013 289.600 C 177.360 311.307,184.658 312.402,203.843 292.426 C 210.553 285.438,215.848 279.232,217.002 277.000 C 225.935 259.727,238.790 244.672,247.557 241.217 C 254.042 238.661,257.812 246.263,253.203 252.600 C 253.043 252.820,252.127 254.530,251.168 256.400 C 250.209 258.270,248.204 261.932,246.712 264.537 C 245.220 267.143,244.000 269.332,244.000 269.402 C 244.000 269.472,241.768 273.396,239.040 278.122 C 233.666 287.434,233.057 288.704,234.262 288.097 C 234.668 287.892,236.620 286.937,238.600 285.975 C 268.796 271.299,287.317 239.857,268.616 235.017 C 263.732 233.753,255.990 234.800,249.800 237.563 C 242.026 241.031,241.197 241.472,234.328 245.789 C 225.183 251.536,216.344 260.074,212.173 267.191 C 208.651 273.201,203.186 269.839,204.211 262.292 C 207.388 238.905,245.985 212.474,270.305 217.031 C 274.692 217.853,274.686 217.777,270.141 214.823 C 256.140 205.726,238.358 199.329,220.600 196.999 C 218.180 196.681,214.850 196.236,213.200 196.008 C 210.402 195.623,189.134 195.407,188.767 195.760 M294.190 238.800 C 299.539 256.668,278.852 284.806,253.200 294.556 C 251.550 295.183,249.840 295.849,249.400 296.036 C 245.375 297.749,234.530 300.350,228.693 301.002 C 226.504 301.246,226.345 301.340,225.581 302.837 C 224.547 304.864,221.850 311.056,220.544 314.400 C 219.986 315.830,218.931 318.530,218.200 320.400 C 215.150 328.204,214.620 329.601,213.118 333.800 C 212.253 336.220,211.399 338.661,211.222 339.223 C 211.045 339.786,210.594 340.838,210.220 341.561 C 209.332 343.279,209.263 343.254,213.630 342.804 C 226.441 341.483,236.808 339.159,247.600 335.187 C 274.081 325.440,293.692 307.939,300.697 287.800 C 303.807 278.856,304.593 271.363,303.385 262.150 C 302.543 255.725,301.107 251.095,298.004 244.800 C 295.971 240.677,293.666 237.050,294.190 238.800 M166.700 287.683 C 165.788 290.061,156.104 301.949,150.625 307.417 C 143.612 314.417,134.515 320.330,129.689 321.027 C 126.637 321.467,126.473 321.738,128.448 323.084 C 135.319 327.766,149.043 334.482,155.200 336.175 C 155.750 336.326,156.560 336.608,157.000 336.800 C 163.884 339.813,183.873 343.123,195.491 343.175 L 201.183 343.200 200.806 342.300 C 197.735 334.968,199.261 317.900,204.190 304.449 C 204.893 302.530,204.756 301.788,203.969 303.257 C 203.697 303.767,203.277 304.391,203.037 304.645 C 202.797 304.898,201.984 305.892,201.231 306.853 C 186.589 325.532,169.887 325.786,165.599 307.396 C 164.460 302.511,165.173 291.839,166.848 288.710 C 167.070 288.295,167.183 287.750,167.099 287.498 C 167.009 287.226,166.847 287.301,166.700 287.683 " stroke="none" fill="#fbfbfb" fill-rule="evenodd"></path><path id="path1" d="M308.100 70.697 C 309.805 70.772,312.595 70.772,314.300 70.697 C 316.005 70.622,314.610 70.561,311.200 70.561 C 307.790 70.561,306.395 70.622,308.100 70.697 M47.299 127.100 L 47.397 182.200 47.500 127.302 L 47.603 72.404 87.501 72.300 L 127.400 72.196 87.300 72.098 L 47.200 72.000 47.299 127.100 M194.488 78.098 L 194.577 84.200 194.699 78.300 L 194.821 72.400 237.798 72.400 L 280.775 72.400 280.907 77.201 L 281.039 82.001 281.019 77.101 L 281.000 72.200 237.700 72.098 L 194.400 71.996 194.488 78.098 M290.001 75.227 C 288.791 75.893,287.621 76.630,287.401 76.863 C 286.974 77.316,291.538 74.901,292.180 74.335 C 292.855 73.740,292.247 73.989,290.001 75.227 M168.865 75.817 C 168.195 77.288,168.323 77.602,169.047 76.265 C 169.386 75.640,169.588 75.054,169.496 74.963 C 169.405 74.871,169.121 75.256,168.865 75.817 M339.200 77.379 C 339.200 77.489,339.740 77.859,340.400 78.200 C 341.060 78.541,341.600 78.731,341.600 78.621 C 341.600 78.511,341.060 78.141,340.400 77.800 C 339.740 77.459,339.200 77.269,339.200 77.379 M283.775 79.700 L 282.600 81.000 283.900 79.825 C 284.615 79.179,285.200 78.594,285.200 78.525 C 285.200 78.216,284.870 78.488,283.775 79.700 M187.228 80.600 C 187.228 80.820,187.486 81.450,187.800 82.000 C 188.114 82.550,188.372 82.820,188.372 82.600 C 188.372 82.380,188.114 81.750,187.800 81.200 C 187.486 80.650,187.228 80.380,187.228 80.600 M304.800 82.360 C 303.841 82.628,313.566 82.497,314.800 82.225 C 315.130 82.152,313.240 82.090,310.600 82.086 C 307.960 82.083,305.350 82.206,304.800 82.360 M347.489 82.830 C 347.978 83.339,348.478 83.655,348.601 83.532 C 348.724 83.409,348.324 82.992,347.712 82.606 L 346.600 81.904 347.489 82.830 M321.200 83.600 C 322.568 84.038,323.619 84.038,322.600 83.600 C 322.160 83.411,321.440 83.262,321.000 83.268 C 320.357 83.277,320.396 83.343,321.200 83.600 M77.130 83.900 C 86.441 83.960,101.561 83.960,110.730 83.900 C 119.898 83.840,112.280 83.791,93.800 83.791 C 75.320 83.791,67.818 83.840,77.130 83.900 M164.865 84.617 C 164.195 86.088,164.323 86.402,165.047 85.065 C 165.386 84.440,165.588 83.854,165.496 83.763 C 165.405 83.671,165.121 84.056,164.865 84.617 M188.828 84.200 C 188.828 84.420,189.086 85.050,189.400 85.600 C 189.714 86.150,189.972 86.420,189.972 86.200 C 189.972 85.980,189.714 85.350,189.400 84.800 C 189.086 84.250,188.828 83.980,188.828 84.200 M244.185 84.500 C 244.080 84.775,244.040 106.870,244.097 133.600 L 244.200 182.200 244.400 133.100 C 244.510 106.095,244.549 84.000,244.487 84.000 C 244.426 84.000,244.289 84.225,244.185 84.500 M348.000 85.200 C 347.530 85.860,347.236 86.400,347.346 86.400 C 347.456 86.400,347.930 85.860,348.400 85.200 C 348.870 84.540,349.164 84.000,349.054 84.000 C 348.944 84.000,348.470 84.540,348.000 85.200 M345.600 88.600 C 344.919 89.590,344.452 90.400,344.562 90.400 C 344.672 90.400,345.319 89.590,346.000 88.600 C 346.681 87.610,347.148 86.800,347.038 86.800 C 346.928 86.800,346.281 87.610,345.600 88.600 M163.265 88.217 C 162.595 89.688,162.723 90.002,163.447 88.665 C 163.786 88.040,163.988 87.454,163.896 87.363 C 163.805 87.271,163.521 87.656,163.265 88.217 M291.578 88.700 L 290.200 90.200 291.700 88.822 C 293.096 87.538,293.384 87.200,293.078 87.200 C 293.012 87.200,292.337 87.875,291.578 88.700 M178.428 90.200 C 178.428 90.420,178.686 91.050,179.000 91.600 C 179.314 92.150,179.572 92.420,179.572 92.200 C 179.572 91.980,179.314 91.350,179.000 90.800 C 178.686 90.250,178.428 89.980,178.428 90.200 M180.028 93.800 C 180.028 94.020,180.286 94.650,180.600 95.200 C 180.914 95.750,181.172 96.020,181.172 95.800 C 181.172 95.580,180.914 94.950,180.600 94.400 C 180.286 93.850,180.028 93.580,180.028 93.800 M181.628 97.400 C 181.628 97.620,181.886 98.250,182.200 98.800 C 182.514 99.350,182.772 99.620,182.772 99.400 C 182.772 99.180,182.514 98.550,182.200 98.000 C 181.886 97.450,181.628 97.180,181.628 97.400 M170.865 99.817 C 170.195 101.288,170.323 101.602,171.047 100.265 C 171.386 99.640,171.588 99.054,171.496 98.963 C 171.405 98.871,171.121 99.256,170.865 99.817 M169.265 103.417 C 168.595 104.888,168.723 105.202,169.447 103.865 C 169.786 103.240,169.988 102.654,169.896 102.563 C 169.805 102.471,169.521 102.856,169.265 103.417 M167.665 107.017 C 166.995 108.488,167.123 108.802,167.847 107.465 C 168.186 106.840,168.388 106.254,168.296 106.163 C 168.205 106.071,167.921 106.456,167.665 107.017 M198.828 106.200 C 198.828 106.420,199.086 107.050,199.400 107.600 C 199.714 108.150,199.972 108.420,199.972 108.200 C 199.972 107.980,199.714 107.350,199.400 106.800 C 199.086 106.250,198.828 105.980,198.828 106.200 M151.665 113.817 C 150.995 115.288,151.123 115.602,151.847 114.265 C 152.186 113.640,152.388 113.054,152.296 112.963 C 152.205 112.871,151.921 113.256,151.665 113.817 M296.000 114.196 C 296.000 114.470,298.449 115.684,298.632 115.501 C 298.719 115.414,298.162 115.044,297.395 114.678 C 296.628 114.312,296.000 114.095,296.000 114.196 M202.828 115.000 C 202.828 115.220,203.086 115.850,203.400 116.400 C 203.714 116.950,203.972 117.220,203.972 117.000 C 203.972 116.780,203.714 116.150,203.400 115.600 C 203.086 115.050,202.828 114.780,202.828 115.000 M299.200 115.831 C 299.200 116.101,301.278 116.856,301.476 116.657 C 301.567 116.567,301.092 116.301,300.420 116.067 C 299.749 115.833,299.200 115.727,299.200 115.831 M190.028 116.200 C 190.028 116.420,190.286 117.050,190.600 117.600 C 190.914 118.150,191.172 118.420,191.172 118.200 C 191.172 117.980,190.914 117.350,190.600 116.800 C 190.286 116.250,190.028 115.980,190.028 116.200 M150.065 117.417 C 149.395 118.888,149.523 119.202,150.247 117.865 C 150.586 117.240,150.788 116.654,150.696 116.563 C 150.605 116.471,150.321 116.856,150.065 117.417 M204.428 118.600 C 204.428 118.820,204.686 119.450,205.000 120.000 C 205.314 120.550,205.572 120.820,205.572 120.600 C 205.572 120.380,205.314 119.750,205.000 119.200 C 204.686 118.650,204.428 118.380,204.428 118.600 M309.000 119.200 C 309.440 119.389,310.070 119.544,310.400 119.544 C 310.778 119.544,310.704 119.417,310.200 119.200 C 309.760 119.011,309.130 118.856,308.800 118.856 C 308.422 118.856,308.496 118.983,309.000 119.200 M314.200 120.400 C 314.640 120.589,315.360 120.738,315.800 120.732 C 316.443 120.723,316.404 120.657,315.600 120.400 C 314.232 119.962,313.181 119.962,314.200 120.400 M119.921 126.597 L 120.041 132.395 90.220 132.501 L 60.400 132.608 90.300 132.604 L 120.200 132.600 120.311 126.700 C 120.372 123.455,120.282 120.800,120.111 120.799 C 119.940 120.799,119.854 123.408,119.921 126.597 M319.600 121.549 C 319.930 121.746,320.830 122.020,321.600 122.156 C 322.544 122.323,322.740 122.292,322.200 122.061 C 320.963 121.532,318.890 121.123,319.600 121.549 M147.665 122.617 C 146.995 124.088,147.123 124.402,147.847 123.065 C 148.186 122.440,148.388 121.854,148.296 121.763 C 148.205 121.671,147.921 122.056,147.665 122.617 M297.600 129.133 C 297.930 129.336,298.650 129.624,299.200 129.771 C 299.895 129.957,300.017 129.925,299.600 129.667 C 299.270 129.464,298.550 129.176,298.000 129.029 C 297.305 128.843,297.183 128.875,297.600 129.133 M302.600 130.800 C 303.040 130.989,303.670 131.144,304.000 131.144 C 304.378 131.144,304.304 131.017,303.800 130.800 C 303.360 130.611,302.730 130.456,302.400 130.456 C 302.022 130.456,302.096 130.583,302.600 130.800 M308.800 132.400 C 310.168 132.838,311.219 132.838,310.200 132.400 C 309.760 132.211,309.040 132.062,308.600 132.068 C 307.957 132.077,307.996 132.143,308.800 132.400 M314.200 133.600 C 314.640 133.789,315.360 133.938,315.800 133.932 C 316.443 133.923,316.404 133.857,315.600 133.600 C 314.232 133.162,313.181 133.162,314.200 133.600 M142.065 135.017 C 141.395 136.488,141.523 136.802,142.247 135.465 C 142.586 134.840,142.788 134.254,142.696 134.163 C 142.605 134.071,142.321 134.456,142.065 135.017 M153.665 138.217 C 152.995 139.688,153.123 140.002,153.847 138.665 C 154.186 138.040,154.388 137.454,154.296 137.363 C 154.205 137.271,153.921 137.656,153.665 138.217 M140.465 138.617 C 139.795 140.088,139.923 140.402,140.647 139.065 C 140.986 138.440,141.188 137.854,141.096 137.763 C 141.005 137.671,140.721 138.056,140.465 138.617 M200.800 140.797 C 200.800 141.054,192.302 141.231,176.700 141.300 L 152.600 141.406 176.900 141.503 C 198.276 141.588,201.200 141.528,201.200 141.000 C 201.200 140.670,201.110 140.400,201.000 140.400 C 200.890 140.400,200.800 140.579,200.800 140.797 M216.028 144.200 C 216.028 144.420,216.286 145.050,216.600 145.600 C 216.914 146.150,217.172 146.420,217.172 146.200 C 217.172 145.980,216.914 145.350,216.600 144.800 C 216.286 144.250,216.028 143.980,216.028 144.200 M352.093 147.200 C 352.093 147.970,352.175 148.285,352.276 147.900 C 352.376 147.515,352.376 146.885,352.276 146.500 C 352.175 146.115,352.093 146.430,352.093 147.200 M136.065 148.217 C 135.395 149.688,135.523 150.002,136.247 148.665 C 136.586 148.040,136.788 147.454,136.696 147.363 C 136.605 147.271,136.321 147.656,136.065 148.217 M217.628 147.800 C 217.628 148.020,217.886 148.650,218.200 149.200 C 218.514 149.750,218.772 150.020,218.772 149.800 C 218.772 149.580,218.514 148.950,218.200 148.400 C 217.886 147.850,217.628 147.580,217.628 147.800 M338.868 148.400 C 338.888 149.439,339.518 151.146,339.532 150.200 C 339.538 149.760,339.389 149.040,339.200 148.600 C 338.989 148.110,338.861 148.032,338.868 148.400 M352.479 151.444 C 352.436 153.008,352.315 155.168,352.211 156.244 L 352.022 158.200 352.428 156.256 C 352.651 155.187,352.772 153.027,352.696 151.456 L 352.559 148.600 352.479 151.444 M146.581 154.437 C 146.229 155.118,146.012 155.745,146.099 155.832 C 146.186 155.919,146.556 155.362,146.922 154.595 C 147.744 152.870,147.459 152.738,146.581 154.437 M339.050 157.250 C 338.717 158.917,339.040 159.240,339.400 157.600 C 339.552 156.909,339.593 156.259,339.491 156.158 C 339.389 156.056,339.191 156.547,339.050 157.250 M221.628 156.600 C 221.628 156.820,221.886 157.450,222.200 158.000 C 222.514 158.550,222.772 158.820,222.772 158.600 C 222.772 158.380,222.514 157.750,222.200 157.200 C 221.886 156.650,221.628 156.380,221.628 156.600 M279.200 157.325 C 279.200 157.394,279.785 157.979,280.500 158.625 L 281.800 159.800 280.625 158.500 C 279.530 157.288,279.200 157.016,279.200 157.325 M208.428 157.800 C 208.428 158.020,208.686 158.650,209.000 159.200 C 209.314 159.750,209.572 160.020,209.572 159.800 C 209.572 159.580,209.314 158.950,209.000 158.400 C 208.686 157.850,208.428 157.580,208.428 157.800 M130.465 160.617 C 129.795 162.088,129.923 162.402,130.647 161.065 C 130.986 160.440,131.188 159.854,131.096 159.763 C 131.005 159.671,130.721 160.056,130.465 160.617 M210.028 161.400 C 210.028 161.620,210.286 162.250,210.600 162.800 C 210.914 163.350,211.172 163.620,211.172 163.400 C 211.172 163.180,210.914 162.550,210.600 162.000 C 210.286 161.450,210.028 161.180,210.028 161.400 M335.023 164.722 C 333.072 166.971,333.068 166.979,334.755 165.400 C 336.176 164.069,337.547 162.338,337.114 162.422 C 337.051 162.434,336.110 163.469,335.023 164.722 M128.865 164.217 C 128.195 165.688,128.323 166.002,129.047 164.665 C 129.386 164.040,129.588 163.454,129.496 163.363 C 129.405 163.271,129.121 163.656,128.865 164.217 M290.800 165.779 C 290.800 165.889,291.340 166.259,292.000 166.600 C 292.660 166.941,293.200 167.131,293.200 167.021 C 293.200 166.911,292.660 166.541,292.000 166.200 C 291.340 165.859,290.800 165.669,290.800 165.779 M140.865 167.017 C 140.195 168.488,140.323 168.802,141.047 167.465 C 141.386 166.840,141.588 166.254,141.496 166.163 C 141.405 166.071,141.121 166.456,140.865 167.017 M227.228 169.000 C 227.228 169.220,227.486 169.850,227.800 170.400 C 228.114 170.950,228.372 171.220,228.372 171.000 C 228.372 170.780,228.114 170.150,227.800 169.600 C 227.486 169.050,227.228 168.780,227.228 169.000 M93.400 170.000 L 60.200 170.207 93.276 170.303 C 115.001 170.367,126.438 170.263,126.600 170.000 C 126.736 169.780,126.792 169.643,126.724 169.697 C 126.656 169.750,111.660 169.886,93.400 170.000 M139.265 170.617 C 138.595 172.088,138.723 172.402,139.447 171.065 C 139.786 170.440,139.988 169.854,139.896 169.763 C 139.805 169.671,139.521 170.056,139.265 170.617 M324.200 170.800 C 323.696 171.017,323.622 171.144,324.000 171.144 C 324.330 171.144,324.960 170.989,325.400 170.800 C 325.904 170.583,325.978 170.456,325.600 170.456 C 325.270 170.456,324.640 170.611,324.200 170.800 M214.428 171.400 C 214.428 171.620,214.686 172.250,215.000 172.800 C 215.314 173.350,215.572 173.620,215.572 173.400 C 215.572 173.180,215.314 172.550,215.000 172.000 C 214.686 171.450,214.428 171.180,214.428 171.400 M312.118 171.898 C 313.833 171.973,316.533 171.972,318.118 171.897 C 319.703 171.821,318.300 171.759,315.000 171.760 C 311.700 171.761,310.403 171.822,312.118 171.898 M228.828 172.600 C 228.828 172.820,229.086 173.450,229.400 174.000 C 229.714 174.550,229.972 174.820,229.972 174.600 C 229.972 174.380,229.714 173.750,229.400 173.200 C 229.086 172.650,228.828 172.380,228.828 172.600 M137.665 174.217 C 136.995 175.688,137.123 176.002,137.847 174.665 C 138.186 174.040,138.388 173.454,138.296 173.363 C 138.205 173.271,137.921 173.656,137.665 174.217 M216.067 175.220 C 216.301 175.892,216.567 176.367,216.657 176.276 C 216.856 176.078,216.101 174.000,215.831 174.000 C 215.727 174.000,215.833 174.549,216.067 175.220 M280.800 174.179 C 280.800 174.289,281.340 174.659,282.000 175.000 C 282.660 175.341,283.200 175.531,283.200 175.421 C 283.200 175.311,282.660 174.941,282.000 174.600 C 281.340 174.259,280.800 174.069,280.800 174.179 M283.600 175.779 C 283.600 175.889,284.140 176.259,284.800 176.600 C 285.460 176.941,286.000 177.131,286.000 177.021 C 286.000 176.911,285.460 176.541,284.800 176.200 C 284.140 175.859,283.600 175.669,283.600 175.779 M288.000 178.200 C 288.550 178.514,289.180 178.772,289.400 178.772 C 289.620 178.772,289.350 178.514,288.800 178.200 C 288.250 177.886,287.620 177.628,287.400 177.628 C 287.180 177.628,287.450 177.886,288.000 178.200 M219.149 181.700 C 219.653 182.343,220.681 182.392,231.749 182.306 L 243.800 182.212 231.834 182.100 C 223.095 182.018,219.696 181.855,219.234 181.494 C 218.674 181.057,218.664 181.081,219.149 181.700 M69.269 182.300 C 81.077 182.359,100.517 182.359,112.469 182.300 C 124.421 182.241,114.760 182.193,91.000 182.193 C 67.240 182.193,57.461 182.241,69.269 182.300 M300.033 182.147 C 300.125 182.228,300.920 182.404,301.800 182.538 C 302.915 182.707,303.158 182.671,302.600 182.419 C 301.832 182.071,299.690 181.844,300.033 182.147 M325.800 182.400 C 324.781 182.838,325.832 182.838,327.200 182.400 C 328.004 182.143,328.043 182.077,327.400 182.068 C 326.960 182.062,326.240 182.211,325.800 182.400 M309.100 183.489 C 309.815 183.578,310.985 183.578,311.700 183.489 C 312.415 183.401,311.830 183.328,310.400 183.328 C 308.970 183.328,308.385 183.401,309.100 183.489 M318.100 183.487 C 318.705 183.578,319.695 183.578,320.300 183.487 C 320.905 183.395,320.410 183.320,319.200 183.320 C 317.990 183.320,317.495 183.395,318.100 183.487 M196.480 195.498 C 198.394 195.571,201.634 195.571,203.680 195.498 C 205.726 195.426,204.160 195.366,200.200 195.365 C 196.240 195.365,194.566 195.424,196.480 195.498 M186.900 195.876 C 187.285 195.976,187.915 195.976,188.300 195.876 C 188.685 195.775,188.370 195.693,187.600 195.693 C 186.830 195.693,186.515 195.775,186.900 195.876 M183.500 196.282 C 183.995 196.378,184.805 196.378,185.300 196.282 C 185.795 196.187,185.390 196.109,184.400 196.109 C 183.410 196.109,183.005 196.187,183.500 196.282 M214.905 196.287 C 215.514 196.379,216.414 196.377,216.905 196.282 C 217.397 196.187,216.900 196.111,215.800 196.114 C 214.700 196.117,214.297 196.195,214.905 196.287 M218.500 196.676 C 218.885 196.776,219.515 196.776,219.900 196.676 C 220.285 196.575,219.970 196.493,219.200 196.493 C 218.430 196.493,218.115 196.575,218.500 196.676 M173.600 197.600 C 172.808 197.854,172.767 197.920,173.400 197.920 C 173.840 197.920,174.650 197.776,175.200 197.600 C 175.992 197.346,176.033 197.280,175.400 197.280 C 174.960 197.280,174.150 197.424,173.600 197.600 M225.000 197.581 C 225.768 197.929,227.910 198.156,227.567 197.853 C 227.475 197.772,226.680 197.596,225.800 197.462 C 224.685 197.293,224.442 197.329,225.000 197.581 M166.200 199.200 C 165.181 199.638,166.232 199.638,167.600 199.200 C 168.404 198.943,168.443 198.877,167.800 198.868 C 167.360 198.862,166.640 199.011,166.200 199.200 M237.400 200.400 C 237.840 200.589,238.470 200.744,238.800 200.744 C 239.178 200.744,239.104 200.617,238.600 200.400 C 238.160 200.211,237.530 200.056,237.200 200.056 C 236.822 200.056,236.896 200.183,237.400 200.400 M242.200 201.814 C 242.860 202.117,243.670 202.358,244.000 202.352 C 244.330 202.345,243.970 202.097,243.200 201.800 C 241.374 201.097,240.655 201.107,242.200 201.814 M156.200 202.000 C 155.696 202.217,155.622 202.344,156.000 202.344 C 156.330 202.344,156.960 202.189,157.400 202.000 C 157.904 201.783,157.978 201.656,157.600 201.656 C 157.270 201.656,156.640 201.811,156.200 202.000 M148.200 205.014 C 147.200 205.496,147.166 205.551,148.000 205.348 C 149.133 205.071,150.407 204.421,149.800 204.430 C 149.580 204.433,148.860 204.696,148.200 205.014 M254.000 206.200 C 254.550 206.514,255.180 206.772,255.400 206.772 C 255.620 206.772,255.350 206.514,254.800 206.200 C 254.250 205.886,253.620 205.628,253.400 205.628 C 253.180 205.628,253.450 205.886,254.000 206.200 M263.511 216.693 C 264.451 216.778,265.891 216.777,266.711 216.691 C 267.530 216.605,266.760 216.536,265.000 216.537 C 263.240 216.539,262.570 216.609,263.511 216.693 M273.726 217.066 C 273.879 217.322,273.784 217.605,273.513 217.696 C 273.242 217.786,273.421 217.964,273.910 218.092 C 274.967 218.369,275.069 217.916,274.123 217.149 C 273.751 216.847,273.572 216.810,273.726 217.066 M161.000 218.019 C 160.442 218.271,160.685 218.307,161.800 218.138 C 162.680 218.004,163.475 217.828,163.567 217.747 C 163.910 217.444,161.768 217.671,161.000 218.019 M210.483 217.940 C 210.194 218.124,210.920 218.190,212.125 218.090 C 213.343 217.989,214.703 218.114,215.243 218.377 C 216.151 218.820,216.160 218.812,215.424 218.222 C 214.598 217.560,211.372 217.376,210.483 217.940 M253.400 218.000 C 252.381 218.438,253.432 218.438,254.800 218.000 C 255.604 217.743,255.643 217.677,255.000 217.668 C 254.560 217.662,253.840 217.811,253.400 218.000 M119.178 222.700 L 117.800 224.200 119.300 222.822 C 120.696 221.538,120.984 221.200,120.678 221.200 C 120.612 221.200,119.937 221.875,119.178 222.700 M201.375 224.900 L 200.200 226.200 201.500 225.025 C 202.712 223.930,202.984 223.600,202.675 223.600 C 202.606 223.600,202.021 224.185,201.375 224.900 M114.987 226.500 L 112.600 229.000 115.100 226.613 C 116.475 225.299,117.600 224.174,117.600 224.113 C 117.600 223.817,117.205 224.178,114.987 226.500 M111.178 230.700 L 109.800 232.200 111.300 230.822 C 112.696 229.538,112.984 229.200,112.678 229.200 C 112.612 229.200,111.937 229.875,111.178 230.700 M225.500 231.806 C 224.235 232.799,223.200 233.699,223.200 233.805 C 223.200 233.912,224.280 233.160,225.600 232.135 C 227.727 230.484,228.249 229.999,227.900 230.000 C 227.845 230.000,226.765 230.813,225.500 231.806 M166.400 233.800 C 165.428 234.790,164.723 235.600,164.833 235.600 C 164.943 235.600,165.828 234.790,166.800 233.800 C 167.772 232.810,168.477 232.000,168.367 232.000 C 168.257 232.000,167.372 232.810,166.400 233.800 M262.500 234.287 C 263.105 234.378,264.095 234.378,264.700 234.287 C 265.305 234.195,264.810 234.120,263.600 234.120 C 262.390 234.120,261.895 234.195,262.500 234.287 M257.600 234.800 C 256.808 235.054,256.767 235.120,257.400 235.120 C 257.840 235.120,258.650 234.976,259.200 234.800 C 259.992 234.546,260.033 234.480,259.400 234.480 C 258.960 234.480,258.150 234.624,257.600 234.800 M161.200 238.600 C 159.561 240.250,158.310 241.600,158.420 241.600 C 158.530 241.600,159.961 240.250,161.600 238.600 C 163.239 236.950,164.490 235.600,164.380 235.600 C 164.270 235.600,162.839 236.950,161.200 238.600 M217.787 238.500 L 215.400 241.000 217.900 238.613 C 219.275 237.299,220.400 236.174,220.400 236.113 C 220.400 235.817,220.005 236.178,217.787 238.500 M190.800 240.000 C 190.330 240.660,190.036 241.200,190.146 241.200 C 190.256 241.200,190.730 240.660,191.200 240.000 C 191.670 239.340,191.964 238.800,191.854 238.800 C 191.744 238.800,191.270 239.340,190.800 240.000 M103.400 241.600 C 103.059 242.260,102.869 242.800,102.979 242.800 C 103.089 242.800,103.459 242.260,103.800 241.600 C 104.141 240.940,104.331 240.400,104.221 240.400 C 104.111 240.400,103.741 240.940,103.400 241.600 M248.674 240.742 C 248.251 240.909,248.886 241.029,250.200 241.029 C 251.514 241.029,252.149 240.909,251.726 240.742 C 251.327 240.585,250.640 240.456,250.200 240.456 C 249.760 240.456,249.073 240.585,248.674 240.742 M294.528 243.200 C 294.528 244.630,294.601 245.215,294.689 244.500 C 294.778 243.785,294.778 242.615,294.689 241.900 C 294.601 241.185,294.528 241.770,294.528 243.200 M187.777 243.900 C 185.654 246.554,185.477 246.800,185.692 246.800 C 185.796 246.800,186.730 245.720,187.768 244.400 C 188.805 243.080,189.573 242.000,189.475 242.000 C 189.377 242.000,188.612 242.855,187.777 243.900 M238.500 242.846 C 237.137 243.719,236.695 244.306,237.900 243.643 C 238.818 243.139,240.256 242.027,240.000 242.019 C 239.890 242.016,239.215 242.388,238.500 242.846 M297.200 242.953 C 297.200 243.382,298.390 245.600,298.621 245.600 C 298.731 245.600,298.523 245.015,298.159 244.300 C 297.417 242.840,297.200 242.536,297.200 242.953 M155.771 244.500 C 153.502 246.985,152.662 248.000,152.870 248.000 C 152.986 248.000,154.019 246.920,155.167 245.600 C 157.362 243.077,157.803 242.273,155.771 244.500 M254.687 245.266 C 254.929 248.197,255.132 248.595,255.162 246.200 C 255.176 245.100,255.035 243.960,254.849 243.666 C 254.651 243.354,254.584 244.018,254.687 245.266 M131.105 245.483 C 131.602 245.579,132.322 245.575,132.705 245.475 C 133.087 245.375,132.680 245.296,131.800 245.301 C 130.920 245.305,130.607 245.387,131.105 245.483 M276.101 246.600 C 276.105 247.480,276.187 247.793,276.283 247.295 C 276.379 246.798,276.375 246.078,276.275 245.695 C 276.175 245.313,276.096 245.720,276.101 246.600 M236.591 249.300 L 233.400 252.600 236.700 249.409 C 239.765 246.446,240.182 246.000,239.891 246.000 C 239.830 246.000,238.345 247.485,236.591 249.300 M294.514 247.800 C 294.517 248.900,294.595 249.303,294.687 248.695 C 294.779 248.086,294.777 247.186,294.682 246.695 C 294.587 246.203,294.511 246.700,294.514 247.800 M181.286 252.053 C 179.904 253.784,178.857 255.200,178.961 255.200 C 179.243 255.200,184.111 249.174,183.944 249.031 C 183.865 248.962,182.669 250.322,181.286 252.053 M207.800 251.600 C 207.459 252.260,207.269 252.800,207.379 252.800 C 207.489 252.800,207.859 252.260,208.200 251.600 C 208.541 250.940,208.731 250.400,208.621 250.400 C 208.511 250.400,208.141 250.940,207.800 251.600 M203.753 252.100 C 202.376 254.436,202.286 254.635,202.987 253.800 C 203.800 252.832,204.500 251.600,204.238 251.600 C 204.133 251.600,203.915 251.825,203.753 252.100 M222.778 254.300 L 221.400 255.800 222.900 254.422 C 224.296 253.138,224.584 252.800,224.278 252.800 C 224.212 252.800,223.537 253.475,222.778 254.300 M229.344 257.500 C 227.318 260.052,227.071 260.400,227.287 260.400 C 227.388 260.400,228.310 259.320,229.335 258.000 C 230.360 256.680,231.121 255.600,231.026 255.600 C 230.931 255.600,230.174 256.455,229.344 257.500 M250.200 257.600 C 249.859 258.260,249.669 258.800,249.779 258.800 C 249.889 258.800,250.259 258.260,250.600 257.600 C 250.941 256.940,251.131 256.400,251.021 256.400 C 250.911 256.400,250.541 256.940,250.200 257.600 M218.000 259.000 C 217.028 259.990,216.323 260.800,216.433 260.800 C 216.543 260.800,217.428 259.990,218.400 259.000 C 219.372 258.010,220.077 257.200,219.967 257.200 C 219.857 257.200,218.972 258.010,218.000 259.000 M123.400 260.400 C 123.059 261.060,122.869 261.600,122.979 261.600 C 123.089 261.600,123.459 261.060,123.800 260.400 C 124.141 259.740,124.331 259.200,124.221 259.200 C 124.111 259.200,123.741 259.740,123.400 260.400 M215.144 262.300 C 213.993 263.689,213.506 264.400,213.704 264.400 C 213.814 264.400,214.386 263.770,214.973 263.000 C 216.063 261.571,216.195 261.032,215.144 262.300 M303.709 264.000 C 303.709 264.990,303.787 265.395,303.882 264.900 C 303.978 264.405,303.978 263.595,303.882 263.100 C 303.787 262.605,303.709 263.010,303.709 264.000 M96.131 265.400 C 96.133 266.940,96.205 267.521,96.292 266.691 C 96.379 265.861,96.377 264.601,96.289 263.891 C 96.200 263.181,96.129 263.860,96.131 265.400 M286.999 267.300 C 286.390 268.235,285.286 269.750,284.546 270.667 C 283.806 271.584,283.200 272.472,283.200 272.639 C 283.200 273.024,286.790 268.402,287.738 266.798 C 288.804 264.992,288.262 265.361,286.999 267.300 M168.575 267.700 L 167.400 269.000 168.700 267.825 C 169.912 266.730,170.184 266.400,169.875 266.400 C 169.806 266.400,169.221 266.985,168.575 267.700 M261.600 269.800 C 259.961 271.450,258.710 272.800,258.820 272.800 C 258.930 272.800,260.361 271.450,262.000 269.800 C 263.639 268.150,264.890 266.800,264.780 266.800 C 264.670 266.800,263.239 268.150,261.600 269.800 M304.131 269.400 C 304.133 270.940,304.205 271.521,304.292 270.691 C 304.379 269.861,304.377 268.601,304.289 267.891 C 304.200 267.181,304.129 267.860,304.131 269.400 M137.800 270.000 C 137.459 270.660,137.269 271.200,137.379 271.200 C 137.489 271.200,137.859 270.660,138.200 270.000 C 138.541 269.340,138.731 268.800,138.621 268.800 C 138.511 268.800,138.141 269.340,137.800 270.000 M117.800 270.400 C 117.459 271.060,117.269 271.600,117.379 271.600 C 117.489 271.600,117.859 271.060,118.200 270.400 C 118.541 269.740,118.731 269.200,118.621 269.200 C 118.511 269.200,118.141 269.740,117.800 270.400 M96.131 273.400 C 96.133 274.940,96.205 275.521,96.292 274.691 C 96.379 273.861,96.377 272.601,96.289 271.891 C 96.200 271.181,96.129 271.860,96.131 273.400 M164.175 272.900 L 163.000 274.200 164.300 273.025 C 165.512 271.930,165.784 271.600,165.475 271.600 C 165.406 271.600,164.821 272.185,164.175 272.900 M278.592 277.300 L 274.600 281.400 278.700 277.408 C 280.955 275.212,282.800 273.367,282.800 273.308 C 282.800 273.018,282.301 273.492,278.592 277.300 M303.709 274.800 C 303.709 275.790,303.787 276.195,303.882 275.700 C 303.978 275.205,303.978 274.395,303.882 273.900 C 303.787 273.405,303.709 273.810,303.709 274.800 M160.808 276.592 C 159.841 277.577,159.129 278.441,159.225 278.513 C 159.321 278.584,160.190 277.778,161.157 276.721 C 163.371 274.300,163.141 274.214,160.808 276.592 M253.400 276.832 C 251.027 278.626,250.708 279.132,252.933 277.572 C 254.614 276.394,255.529 275.575,255.124 275.611 C 255.056 275.617,254.280 276.167,253.400 276.832 M153.800 284.000 C 151.167 286.640,149.103 288.800,149.213 288.800 C 149.323 288.800,151.567 286.640,154.200 284.000 C 156.833 281.360,158.897 279.200,158.787 279.200 C 158.677 279.200,156.433 281.360,153.800 284.000 M132.065 281.017 C 131.395 282.488,131.523 282.802,132.247 281.465 C 132.586 280.840,132.788 280.254,132.696 280.163 C 132.605 280.071,132.321 280.456,132.065 281.017 M97.444 282.600 C 97.773 284.071,98.002 284.390,97.994 283.367 C 97.991 282.945,97.805 282.330,97.582 282.000 C 97.285 281.562,97.248 281.724,97.444 282.600 M212.575 282.900 L 211.400 284.200 212.700 283.025 C 213.415 282.379,214.000 281.794,214.000 281.725 C 214.000 281.416,213.670 281.688,212.575 282.900 M271.731 283.327 C 268.935 285.587,268.599 286.021,270.898 284.403 C 272.564 283.231,274.419 281.550,273.962 281.627 C 273.873 281.642,272.869 282.407,271.731 283.327 M130.465 284.617 C 129.795 286.088,129.923 286.402,130.647 285.065 C 130.986 284.440,131.188 283.854,131.096 283.763 C 131.005 283.671,130.721 284.056,130.465 284.617 M209.775 286.100 L 208.600 287.400 209.900 286.225 C 210.615 285.579,211.200 284.994,211.200 284.925 C 211.200 284.616,210.870 284.888,209.775 286.100 M233.274 287.798 C 233.023 288.349,232.972 288.800,233.162 288.800 C 233.494 288.800,234.092 287.159,233.849 286.916 C 233.784 286.850,233.525 287.247,233.274 287.798 M128.867 288.380 C 128.633 289.051,128.527 289.600,128.631 289.600 C 128.901 289.600,129.656 287.522,129.457 287.324 C 129.367 287.233,129.101 287.708,128.867 288.380 M234.800 287.800 C 234.250 288.114,233.980 288.372,234.200 288.372 C 234.420 288.372,235.050 288.114,235.600 287.800 C 236.150 287.486,236.420 287.228,236.200 287.228 C 235.980 287.228,235.350 287.486,234.800 287.800 M205.600 290.600 C 203.961 292.250,202.710 293.600,202.820 293.600 C 202.930 293.600,204.361 292.250,206.000 290.600 C 207.639 288.950,208.890 287.600,208.780 287.600 C 208.670 287.600,207.239 288.950,205.600 290.600 M166.400 290.000 C 166.151 290.924,166.026 291.759,166.121 291.855 C 166.217 291.950,166.490 291.263,166.727 290.327 C 166.965 289.391,167.090 288.557,167.006 288.473 C 166.922 288.388,166.649 289.076,166.400 290.000 M145.600 291.800 C 144.628 292.790,143.923 293.600,144.033 293.600 C 144.143 293.600,145.028 292.790,146.000 291.800 C 146.972 290.810,147.677 290.000,147.567 290.000 C 147.457 290.000,146.572 290.810,145.600 291.800 M127.667 291.580 C 127.433 292.251,127.327 292.800,127.431 292.800 C 127.701 292.800,128.456 290.722,128.257 290.524 C 128.167 290.433,127.901 290.908,127.667 291.580 M299.265 291.417 C 298.595 292.888,298.723 293.202,299.447 291.865 C 299.786 291.240,299.988 290.654,299.896 290.563 C 299.805 290.471,299.521 290.856,299.265 291.417 M160.155 296.281 C 159.307 297.316,158.822 298.034,159.077 297.876 C 159.621 297.540,162.155 294.400,161.882 294.400 C 161.780 294.400,161.003 295.247,160.155 296.281 M126.044 296.044 C 125.798 296.751,125.666 297.400,125.752 297.485 C 125.838 297.571,126.109 297.062,126.356 296.356 C 126.602 295.649,126.734 295.000,126.648 294.915 C 126.562 294.829,126.291 295.338,126.044 296.044 M248.200 296.214 C 247.195 296.698,247.163 296.753,248.000 296.551 C 248.550 296.419,249.171 296.150,249.380 295.955 C 249.898 295.471,249.614 295.533,248.200 296.214 M165.057 297.500 C 164.745 299.388,164.796 304.302,165.140 305.520 C 165.283 306.027,165.400 304.092,165.400 301.220 C 165.400 295.394,165.402 295.413,165.057 297.500 M197.381 298.900 L 195.800 300.600 197.500 299.019 C 199.081 297.548,199.384 297.200,199.081 297.200 C 199.016 297.200,198.251 297.965,197.381 298.900 M243.800 297.600 C 243.296 297.817,243.222 297.944,243.600 297.944 C 243.930 297.944,244.560 297.789,245.000 297.600 C 245.504 297.383,245.578 297.256,245.200 297.256 C 244.870 297.256,244.240 297.411,243.800 297.600 M237.400 299.200 C 236.381 299.638,237.432 299.638,238.800 299.200 C 239.604 298.943,239.643 298.877,239.000 298.868 C 238.560 298.862,237.840 299.011,237.400 299.200 M108.064 301.324 C 108.016 303.064,107.875 303.572,107.500 303.347 C 107.211 303.173,107.254 303.361,107.600 303.790 C 108.281 304.634,108.617 302.926,108.289 300.291 C 108.193 299.519,108.102 299.934,108.064 301.324 M181.661 302.478 C 181.590 305.122,182.565 306.618,184.600 306.989 L 185.800 307.207 184.518 306.704 C 182.578 305.942,182.221 305.381,181.961 302.680 L 181.722 300.200 181.661 302.478 M230.100 300.676 C 230.485 300.776,231.115 300.776,231.500 300.676 C 231.885 300.575,231.570 300.493,230.800 300.493 C 230.030 300.493,229.715 300.575,230.100 300.676 M155.375 302.100 L 154.200 303.400 155.500 302.225 C 156.712 301.130,156.984 300.800,156.675 300.800 C 156.606 300.800,156.021 301.385,155.375 302.100 M226.080 301.280 C 225.816 301.544,225.600 301.938,225.600 302.156 C 225.600 302.375,225.825 302.261,226.100 301.905 C 226.375 301.548,227.050 301.178,227.600 301.083 L 228.600 300.909 227.580 300.854 C 227.019 300.825,226.344 301.016,226.080 301.280 M204.838 301.755 C 204.554 302.097,204.514 302.423,204.739 302.562 C 204.946 302.690,205.229 302.501,205.368 302.140 C 205.707 301.256,205.423 301.050,204.838 301.755 M131.100 303.429 C 129.605 304.240,129.696 304.578,131.200 303.800 C 131.860 303.459,132.400 303.094,132.400 302.990 C 132.400 302.732,132.357 302.747,131.100 303.429 M149.200 308.492 C 146.670 310.941,145.860 311.846,147.400 310.504 C 150.166 308.094,154.343 303.981,153.985 304.020 C 153.883 304.031,151.730 306.044,149.200 308.492 M195.991 312.300 L 192.600 315.800 196.100 312.409 C 199.351 309.259,199.782 308.800,199.491 308.800 C 199.431 308.800,197.856 310.375,195.991 312.300 M222.065 309.817 C 221.395 311.288,221.523 311.602,222.247 310.265 C 222.586 309.640,222.788 309.054,222.696 308.963 C 222.605 308.871,222.321 309.256,222.065 309.817 M284.592 312.500 L 281.000 316.200 284.700 312.608 C 286.735 310.633,288.400 308.968,288.400 308.908 C 288.400 308.618,287.928 309.064,284.592 312.500 M170.383 316.900 C 172.041 318.666,172.400 318.984,172.400 318.683 C 172.400 318.619,171.545 317.764,170.500 316.783 L 168.600 315.000 170.383 316.900 M278.400 318.057 L 276.200 320.089 278.299 318.408 C 280.139 316.934,281.113 315.973,280.724 316.013 C 280.656 316.020,279.610 316.940,278.400 318.057 M183.200 320.400 C 182.376 320.664,182.341 320.726,183.000 320.754 C 183.440 320.773,184.070 320.613,184.400 320.400 C 185.101 319.947,184.614 319.947,183.200 320.400 M178.307 321.090 C 179.026 321.179,180.106 321.177,180.707 321.086 C 181.308 320.995,180.720 320.922,179.400 320.924 C 178.080 320.926,177.588 321.001,178.307 321.090 M126.600 322.000 C 127.417 322.903,127.950 323.104,127.232 322.239 C 126.875 321.808,126.887 321.630,127.283 321.470 C 127.567 321.356,127.367 321.249,126.838 321.232 C 125.901 321.201,125.895 321.221,126.600 322.000 M199.359 330.000 C 199.359 333.190,199.421 334.495,199.497 332.900 C 199.573 331.305,199.573 328.695,199.497 327.100 C 199.421 325.505,199.359 326.810,199.359 330.000 M134.400 326.979 C 134.400 327.089,134.940 327.459,135.600 327.800 C 136.260 328.141,136.800 328.331,136.800 328.221 C 136.800 328.111,136.260 327.741,135.600 327.400 C 134.940 327.059,134.400 326.869,134.400 326.979 M239.000 338.000 C 238.496 338.217,238.422 338.344,238.800 338.344 C 239.130 338.344,239.760 338.189,240.200 338.000 C 240.704 337.783,240.778 337.656,240.400 337.656 C 240.070 337.656,239.440 337.811,239.000 338.000 M164.200 339.200 C 164.640 339.389,165.360 339.538,165.800 339.532 C 166.443 339.523,166.404 339.457,165.600 339.200 C 164.232 338.762,163.181 338.762,164.200 339.200 M233.800 339.415 C 232.223 339.961,232.220 339.965,233.600 339.732 C 235.232 339.457,236.900 338.848,236.000 338.856 C 235.670 338.859,234.680 339.111,233.800 339.415 M210.465 340.217 C 209.795 341.688,209.923 342.002,210.647 340.665 C 210.986 340.040,211.188 339.454,211.096 339.363 C 211.005 339.271,210.721 339.656,210.465 340.217 M171.200 340.800 C 171.750 340.976,172.560 341.120,173.000 341.120 C 173.633 341.120,173.592 341.054,172.800 340.800 C 172.250 340.624,171.440 340.480,171.000 340.480 C 170.367 340.480,170.408 340.546,171.200 340.800 M179.233 342.150 C 179.325 342.232,180.480 342.400,181.800 342.523 C 183.378 342.670,183.789 342.635,183.000 342.420 C 181.766 342.085,178.936 341.882,179.233 342.150 M217.400 342.400 C 215.737 342.823,217.374 342.842,219.400 342.423 C 220.745 342.145,220.809 342.092,219.800 342.093 C 219.140 342.094,218.060 342.232,217.400 342.400 M186.900 343.076 C 187.285 343.176,187.915 343.176,188.300 343.076 C 188.685 342.975,188.370 342.893,187.600 342.893 C 186.830 342.893,186.515 342.975,186.900 343.076 M212.100 343.076 C 212.485 343.176,213.115 343.176,213.500 343.076 C 213.885 342.975,213.570 342.893,212.800 342.893 C 212.030 342.893,211.715 342.975,212.100 343.076 M193.717 343.497 C 195.211 343.574,197.551 343.574,198.917 343.496 C 200.282 343.418,199.060 343.355,196.200 343.355 C 193.340 343.356,192.222 343.420,193.717 343.497 " stroke="none" fill="#9fd9ef" fill-rule="evenodd"></path><path id="path2" d="M309.700 70.287 C 310.305 70.378,311.295 70.378,311.900 70.287 C 312.505 70.195,312.010 70.120,310.800 70.120 C 309.590 70.120,309.095 70.195,309.700 70.287 M170.749 71.500 C 170.265 72.117,170.275 72.142,170.827 71.711 C 171.236 71.393,173.465 71.180,177.227 71.100 L 183.000 70.976 177.149 70.888 C 171.988 70.810,171.233 70.883,170.749 71.500 M67.530 71.900 C 78.602 71.959,96.602 71.959,107.530 71.900 C 118.459 71.841,109.400 71.792,87.400 71.792 C 65.400 71.792,56.459 71.841,67.530 71.900 M209.800 71.895 C 250.854 72.169,281.106 72.172,280.938 71.900 C 280.836 71.735,261.278 71.643,237.476 71.695 C 213.674 71.748,201.220 71.837,209.800 71.895 M127.359 78.000 C 127.359 81.190,127.421 82.495,127.497 80.900 C 127.573 79.305,127.573 76.695,127.497 75.100 C 127.421 73.505,127.359 74.810,127.359 78.000 M282.581 80.500 L 281.000 82.200 282.700 80.619 C 284.281 79.148,284.584 78.800,284.281 78.800 C 284.216 78.800,283.451 79.565,282.581 80.500 M60.600 102.300 L 60.600 120.600 90.300 120.604 L 120.000 120.608 90.404 120.501 L 60.808 120.395 60.704 102.197 L 60.600 84.000 60.600 102.300 M212.598 84.304 L 230.797 84.408 230.901 129.504 L 231.005 174.600 231.003 129.400 L 231.000 84.200 212.700 84.200 L 194.400 84.200 212.598 84.304 M250.600 84.287 C 265.859 84.567,279.200 84.573,279.200 84.300 C 279.200 84.135,271.415 84.040,261.900 84.089 C 252.385 84.138,247.300 84.227,250.600 84.287 M291.781 88.900 L 290.200 90.600 291.900 89.019 C 293.481 87.548,293.784 87.200,293.481 87.200 C 293.416 87.200,292.651 87.965,291.781 88.900 M274.137 101.000 C 274.139 102.760,274.209 103.430,274.293 102.489 C 274.378 101.549,274.377 100.109,274.291 99.289 C 274.205 98.470,274.136 99.240,274.137 101.000 M287.314 99.800 C 287.317 100.900,287.395 101.303,287.487 100.695 C 287.579 100.086,287.577 99.186,287.482 98.695 C 287.387 98.203,287.311 98.700,287.314 99.800 M60.585 151.400 C 60.585 161.740,60.636 166.027,60.700 160.928 C 60.763 155.828,60.763 147.368,60.700 142.128 C 60.637 136.887,60.585 141.060,60.585 151.400 M339.331 153.400 C 339.333 154.940,339.405 155.521,339.492 154.691 C 339.579 153.861,339.577 152.601,339.489 151.891 C 339.400 151.181,339.329 151.860,339.331 153.400 M158.000 153.492 C 185.599 153.769,206.707 153.772,206.538 153.500 C 206.436 153.335,193.088 153.242,176.876 153.293 C 160.664 153.344,152.170 153.434,158.000 153.492 M343.781 173.700 L 342.200 175.400 343.900 173.819 C 345.481 172.348,345.784 172.000,345.481 172.000 C 345.416 172.000,344.651 172.765,343.781 173.700 M312.500 183.896 C 313.765 183.975,315.835 183.975,317.100 183.896 C 318.365 183.816,317.330 183.751,314.800 183.751 C 312.270 183.751,311.235 183.816,312.500 183.896 M198.700 195.089 C 199.415 195.178,200.585 195.178,201.300 195.089 C 202.015 195.001,201.430 194.928,200.000 194.928 C 198.570 194.928,197.985 195.001,198.700 195.089 M190.700 195.482 C 191.195 195.578,192.005 195.578,192.500 195.482 C 192.995 195.387,192.590 195.309,191.600 195.309 C 190.610 195.309,190.205 195.387,190.700 195.482 M207.905 195.483 C 208.402 195.579,209.122 195.575,209.505 195.475 C 209.887 195.375,209.480 195.296,208.600 195.301 C 207.720 195.305,207.407 195.387,207.905 195.483 M261.700 217.076 C 262.085 217.176,262.715 217.176,263.100 217.076 C 263.485 216.975,263.170 216.893,262.400 216.893 C 261.630 216.893,261.315 216.975,261.700 217.076 M162.100 218.276 C 162.485 218.376,163.115 218.376,163.500 218.276 C 163.885 218.175,163.570 218.093,162.800 218.093 C 162.030 218.093,161.715 218.175,162.100 218.276 M219.693 225.200 C 219.693 225.970,219.775 226.285,219.876 225.900 C 219.976 225.515,219.976 224.885,219.876 224.500 C 219.775 224.115,219.693 224.430,219.693 225.200 M169.709 226.400 C 169.709 227.390,169.787 227.795,169.882 227.300 C 169.978 226.805,169.978 225.995,169.882 225.500 C 169.787 225.005,169.709 225.410,169.709 226.400 M217.600 239.000 C 215.961 240.650,214.710 242.000,214.820 242.000 C 214.930 242.000,216.361 240.650,218.000 239.000 C 219.639 237.350,220.890 236.000,220.780 236.000 C 220.670 236.000,219.239 237.350,217.600 239.000 M156.975 242.900 L 155.800 244.200 157.100 243.025 C 158.312 241.930,158.584 241.600,158.275 241.600 C 158.206 241.600,157.621 242.185,156.975 242.900 M276.520 244.800 C 276.520 246.010,276.595 246.505,276.687 245.900 C 276.778 245.295,276.778 244.305,276.687 243.700 C 276.595 243.095,276.520 243.590,276.520 244.800 M234.175 252.100 L 233.000 253.400 234.300 252.225 C 235.015 251.579,235.600 250.994,235.600 250.925 C 235.600 250.616,235.270 250.888,234.175 252.100 M220.185 256.500 L 218.200 258.600 220.300 256.615 C 221.455 255.523,222.400 254.578,222.400 254.515 C 222.400 254.217,222.029 254.549,220.185 256.500 M95.709 267.600 C 95.709 268.590,95.787 268.995,95.882 268.500 C 95.978 268.005,95.978 267.195,95.882 266.700 C 95.787 266.205,95.709 266.610,95.709 267.600 M95.701 271.400 C 95.705 272.280,95.787 272.593,95.883 272.095 C 95.979 271.598,95.975 270.878,95.875 270.495 C 95.775 270.113,95.696 270.520,95.701 271.400 M204.585 292.100 L 202.600 294.200 204.700 292.215 C 205.855 291.123,206.800 290.178,206.800 290.115 C 206.800 289.817,206.429 290.149,204.585 292.100 M198.800 297.800 C 197.828 298.790,197.123 299.600,197.233 299.600 C 197.343 299.600,198.228 298.790,199.200 297.800 C 200.172 296.810,200.877 296.000,200.767 296.000 C 200.657 296.000,199.772 296.810,198.800 297.800 M124.901 301.000 C 124.905 301.880,124.987 302.193,125.083 301.695 C 125.179 301.198,125.175 300.478,125.075 300.095 C 124.975 299.713,124.896 300.120,124.901 301.000 M226.252 300.716 C 226.144 300.890,226.718 300.967,227.528 300.887 C 229.742 300.669,230.005 300.467,228.124 300.432 C 227.202 300.414,226.359 300.542,226.252 300.716 M150.791 306.700 L 147.400 310.200 150.900 306.809 C 154.151 303.659,154.582 303.200,154.291 303.200 C 154.231 303.200,152.656 304.775,150.791 306.700 M198.378 309.500 L 197.000 311.000 198.500 309.622 C 199.896 308.338,200.184 308.000,199.878 308.000 C 199.812 308.000,199.137 308.675,198.378 309.500 M201.200 343.133 C 201.200 343.439,200.198 343.627,198.300 343.678 L 195.400 343.757 198.160 343.898 C 200.717 344.029,202.148 343.615,201.473 342.940 C 201.323 342.790,201.200 342.877,201.200 343.133 M188.700 343.482 C 189.195 343.578,190.005 343.578,190.500 343.482 C 190.995 343.387,190.590 343.309,189.600 343.309 C 188.610 343.309,188.205 343.387,188.700 343.482 M209.905 343.483 C 210.402 343.579,211.122 343.575,211.505 343.475 C 211.887 343.375,211.480 343.296,210.600 343.301 C 209.720 343.305,209.407 343.387,209.905 343.483 " stroke="none" fill="#5fc1e6" fill-rule="evenodd"></path><path id="path3" d="M52.500 3.696 C 50.685 3.907,49.200 4.222,49.200 4.395 C 49.200 4.568,48.345 4.836,47.300 4.992 C 46.255 5.148,45.220 5.413,45.000 5.582 C 44.780 5.751,44.066 6.018,43.414 6.174 C 42.762 6.330,41.466 6.805,40.536 7.229 C 39.605 7.653,38.654 8.000,38.422 8.000 C 38.190 8.000,38.000 8.158,38.000 8.350 C 38.000 8.543,37.482 8.804,36.848 8.930 C 36.215 9.057,35.426 9.431,35.097 9.761 C 34.767 10.091,34.025 10.479,33.448 10.624 C 32.872 10.768,32.400 11.025,32.400 11.195 C 32.400 11.364,31.815 11.739,31.100 12.028 C 30.385 12.317,29.656 12.789,29.480 13.077 C 29.304 13.364,28.939 13.600,28.669 13.600 C 28.399 13.600,27.894 13.915,27.547 14.300 C 27.199 14.685,26.484 15.307,25.958 15.683 C 23.975 17.097,23.084 17.859,20.972 19.952 C 19.777 21.136,18.800 22.272,18.800 22.476 C 18.800 22.680,18.620 22.736,18.400 22.600 C 18.180 22.464,18.000 22.516,18.000 22.715 C 18.000 22.915,17.674 23.454,17.275 23.913 C 16.876 24.373,16.201 25.231,15.775 25.819 C 15.349 26.407,14.731 27.170,14.403 27.513 C 13.776 28.168,13.289 28.942,12.142 31.100 C 11.763 31.815,11.319 32.400,11.158 32.400 C 10.996 32.400,10.745 32.940,10.600 33.600 C 10.455 34.260,10.178 34.800,9.984 34.800 C 9.791 34.800,9.416 35.520,9.153 36.400 C 8.889 37.280,8.536 38.000,8.368 38.000 C 8.201 38.000,7.945 38.540,7.800 39.200 C 7.655 39.860,7.395 40.400,7.223 40.400 C 7.050 40.400,6.680 41.480,6.400 42.800 C 6.120 44.120,5.753 45.200,5.585 45.200 C 5.417 45.200,5.095 46.145,4.869 47.300 C 4.644 48.455,4.226 50.120,3.941 51.000 C 3.522 52.295,3.401 80.297,3.306 198.000 C 3.196 334.787,3.263 345.963,4.220 349.600 C 4.364 350.150,4.674 351.545,4.908 352.700 C 5.142 353.855,5.464 354.800,5.622 354.800 C 5.781 354.800,6.037 355.475,6.192 356.300 C 6.346 357.125,6.816 358.555,7.236 359.478 C 7.656 360.401,8.000 361.346,8.000 361.578 C 8.000 361.810,8.151 362.000,8.336 362.000 C 8.521 362.000,8.910 362.720,9.200 363.600 C 9.490 364.480,9.865 365.200,10.032 365.200 C 10.200 365.200,10.455 365.740,10.600 366.400 C 10.745 367.060,10.996 367.600,11.158 367.600 C 11.319 367.600,11.754 368.185,12.123 368.900 C 12.938 370.476,13.603 371.504,14.400 372.417 C 14.730 372.796,15.320 373.531,15.711 374.053 C 17.187 376.019,19.448 378.583,20.751 379.770 C 21.494 380.446,22.716 381.565,23.467 382.256 C 24.218 382.947,25.295 383.847,25.861 384.256 C 26.426 384.665,27.170 385.269,27.513 385.597 C 28.161 386.217,29.088 386.804,30.800 387.679 C 31.350 387.961,32.038 388.417,32.328 388.695 C 32.618 388.972,33.293 389.309,33.828 389.443 C 34.363 389.577,34.800 389.818,34.800 389.979 C 34.800 390.140,35.520 390.510,36.400 390.800 C 37.280 391.090,38.000 391.479,38.000 391.664 C 38.000 391.849,38.190 392.000,38.422 392.000 C 38.654 392.000,39.599 392.344,40.522 392.764 C 41.445 393.184,42.875 393.654,43.700 393.808 C 44.525 393.963,45.200 394.219,45.200 394.378 C 45.200 394.536,46.145 394.861,47.300 395.099 C 48.455 395.338,50.120 395.767,51.000 396.055 C 52.301 396.480,79.661 396.602,197.600 396.709 C 340.937 396.839,349.096 396.781,350.600 395.612 C 350.820 395.441,351.855 395.177,352.900 395.026 C 353.945 394.875,354.800 394.607,354.800 394.430 C 354.800 394.254,355.880 393.880,357.200 393.600 C 358.520 393.320,359.600 392.950,359.600 392.777 C 359.600 392.605,360.140 392.345,360.800 392.200 C 361.460 392.055,362.000 391.800,362.000 391.632 C 362.000 391.465,362.720 391.090,363.600 390.800 C 364.480 390.510,365.200 390.140,365.200 389.979 C 365.200 389.818,365.660 389.571,366.223 389.430 C 366.786 389.289,368.134 388.549,369.219 387.787 C 370.304 387.024,371.334 386.400,371.507 386.400 C 371.680 386.400,372.106 386.085,372.453 385.700 C 372.801 385.315,373.516 384.693,374.042 384.317 C 374.569 383.942,375.416 383.312,375.924 382.917 C 377.309 381.843,382.089 377.025,382.975 375.812 C 383.401 375.227,384.073 374.356,384.468 373.875 C 386.546 371.341,389.158 367.305,389.436 366.198 C 389.574 365.649,389.817 365.200,389.976 365.200 C 390.289 365.200,392.400 360.677,392.400 360.007 C 392.400 359.783,392.558 359.600,392.750 359.600 C 392.943 359.600,393.340 358.520,393.633 357.200 C 393.925 355.880,394.302 354.800,394.469 354.800 C 394.636 354.800,394.892 353.900,395.038 352.800 C 395.184 351.700,395.431 350.800,395.587 350.800 C 396.720 350.800,396.800 340.863,396.800 199.750 C 396.800 58.448,396.725 49.200,395.576 49.200 C 395.401 49.200,395.134 48.210,394.983 47.000 C 394.832 45.790,394.577 44.800,394.418 44.800 C 394.258 44.800,393.890 43.810,393.600 42.600 C 393.310 41.390,392.929 40.400,392.754 40.400 C 392.579 40.400,392.318 39.770,392.174 39.000 C 392.029 38.230,391.779 37.600,391.619 37.600 C 391.458 37.600,391.111 36.880,390.847 36.000 C 390.584 35.120,390.240 34.399,390.084 34.399 C 389.928 34.398,389.260 33.363,388.600 32.099 C 387.940 30.834,387.175 29.656,386.900 29.480 C 386.625 29.304,386.400 28.894,386.400 28.568 C 386.400 28.242,386.130 27.871,385.800 27.745 C 385.470 27.618,385.200 27.273,385.200 26.977 C 385.200 26.682,384.975 26.296,384.700 26.120 C 384.425 25.944,383.300 24.721,382.200 23.402 C 379.948 20.701,376.871 17.600,376.444 17.600 C 376.289 17.600,375.540 16.976,374.781 16.213 C 374.021 15.450,373.194 14.820,372.943 14.813 C 372.691 14.806,372.382 14.530,372.255 14.200 C 372.129 13.870,371.847 13.600,371.630 13.600 C 371.293 13.600,369.126 12.305,367.792 11.306 C 367.567 11.138,366.307 10.460,364.992 9.800 C 363.676 9.140,362.540 8.465,362.467 8.300 C 362.393 8.135,362.068 8.000,361.745 8.000 C 361.421 8.000,360.356 7.635,359.378 7.190 C 358.400 6.744,357.060 6.272,356.400 6.140 C 355.740 6.008,355.200 5.763,355.200 5.596 C 355.200 5.429,354.210 5.168,353.000 5.017 C 351.790 4.866,350.800 4.599,350.800 4.424 C 350.800 3.204,62.758 2.501,52.500 3.696 M318.336 70.383 C 323.003 70.835,331.136 72.787,333.600 74.047 C 333.930 74.216,335.623 75.025,337.362 75.845 C 340.325 77.242,345.942 80.789,348.555 82.913 L 349.710 83.852 348.255 85.926 C 347.455 87.067,346.140 88.945,345.332 90.100 C 341.807 95.144,342.064 95.003,339.755 93.156 C 320.286 77.579,290.123 79.831,288.054 97.016 C 287.224 103.910,288.831 108.208,293.769 112.306 C 296.453 114.533,304.996 117.676,313.600 119.603 C 335.068 124.411,345.947 130.384,350.384 139.800 C 350.902 140.900,351.466 142.094,351.637 142.453 C 353.451 146.263,353.223 157.716,351.227 163.000 C 348.376 170.550,340.874 178.068,333.629 180.636 C 332.623 180.993,331.440 181.441,331.000 181.631 C 323.841 184.733,307.196 184.694,296.200 181.549 C 287.671 179.109,279.186 174.356,271.027 167.447 C 269.555 166.200,269.572 166.162,274.108 160.431 C 278.249 155.200,277.539 155.377,281.418 158.602 C 305.007 178.214,338.957 175.143,338.937 153.400 C 338.927 142.517,332.623 137.963,311.000 133.220 C 308.800 132.738,306.190 132.107,305.200 131.818 C 304.210 131.530,302.860 131.172,302.200 131.024 C 294.255 129.236,284.877 124.182,280.268 119.205 C 272.567 110.886,271.564 96.443,277.956 85.900 L 278.865 84.400 261.834 84.400 L 244.803 84.400 244.702 133.300 L 244.600 182.200 231.800 182.301 L 219.000 182.403 218.478 181.301 C 218.191 180.696,217.138 178.310,216.138 176.000 C 215.139 173.690,213.708 170.488,212.960 168.885 C 212.212 167.281,211.600 165.887,211.600 165.786 C 211.600 165.685,211.077 164.477,210.438 163.101 C 209.315 160.684,207.936 157.603,206.766 154.897 L 206.202 153.595 176.853 153.697 L 147.503 153.800 145.813 157.600 C 144.884 159.690,143.716 162.300,143.219 163.400 C 142.722 164.500,142.078 165.940,141.788 166.600 C 141.498 167.260,140.527 169.386,139.630 171.324 C 138.734 173.262,138.000 174.923,138.000 175.015 C 138.000 175.107,137.397 176.491,136.660 178.091 C 135.923 179.691,135.209 181.315,135.073 181.700 C 134.839 182.361,132.378 182.400,91.013 182.400 L 47.200 182.400 47.200 127.000 L 47.200 71.600 87.400 71.600 L 127.600 71.600 127.600 77.800 L 127.600 84.000 94.200 84.000 L 60.800 84.000 60.800 102.197 L 60.800 120.395 90.700 120.497 L 120.600 120.600 120.710 126.700 L 120.821 132.800 90.810 132.800 L 60.800 132.800 60.800 151.400 L 60.800 170.000 93.390 170.000 L 125.980 170.000 126.835 168.100 C 127.305 167.055,128.141 165.210,128.694 164.000 C 129.246 162.790,130.014 161.080,130.400 160.200 C 130.786 159.320,131.574 157.565,132.151 156.300 C 132.728 155.035,133.667 152.965,134.238 151.700 C 134.809 150.435,135.729 148.410,136.283 147.200 C 136.836 145.990,137.614 144.280,138.010 143.400 C 138.407 142.520,139.377 140.401,140.166 138.691 C 140.955 136.981,141.600 135.514,141.600 135.430 C 141.600 135.347,142.340 133.686,143.245 131.739 C 144.150 129.793,145.500 126.888,146.245 125.285 C 146.990 123.681,147.600 122.290,147.600 122.194 C 147.600 122.097,148.208 120.709,148.952 119.109 C 149.696 117.509,150.793 115.120,151.390 113.800 C 151.987 112.480,152.929 110.410,153.483 109.200 C 154.036 107.990,154.811 106.280,155.204 105.400 C 155.597 104.520,156.567 102.389,157.359 100.664 C 158.152 98.940,158.800 97.465,158.800 97.388 C 158.800 97.311,159.537 95.662,160.438 93.724 C 163.651 86.815,164.085 85.867,164.785 84.244 C 165.646 82.247,166.851 79.585,168.698 75.600 C 169.463 73.950,170.244 72.195,170.434 71.700 C 170.773 70.819,170.915 70.800,177.096 70.800 L 183.411 70.800 184.280 72.700 C 184.758 73.745,185.635 75.680,186.229 77.000 C 186.823 78.320,188.094 81.080,189.054 83.132 C 190.014 85.185,190.800 86.949,190.800 87.051 C 190.800 87.153,191.406 88.534,192.147 90.118 C 192.887 91.703,193.898 93.900,194.392 95.000 C 194.885 96.100,195.740 97.990,196.291 99.200 C 196.842 100.410,197.969 102.930,198.797 104.800 C 199.624 106.670,200.864 109.415,201.551 110.900 C 203.376 114.844,205.199 118.828,205.807 120.200 C 206.100 120.860,207.073 122.986,207.970 124.924 C 208.866 126.862,209.600 128.511,209.600 128.588 C 209.600 128.665,210.230 130.095,211.000 131.764 C 211.770 133.434,213.030 136.166,213.800 137.836 C 214.570 139.505,215.200 140.938,215.200 141.020 C 215.200 141.102,215.811 142.481,216.558 144.085 C 219.253 149.872,220.800 153.274,220.800 153.412 C 220.800 153.489,221.536 155.138,222.436 157.076 C 223.335 159.014,224.395 161.320,224.791 162.200 C 225.187 163.080,226.052 164.975,226.713 166.411 C 227.374 167.848,228.401 170.188,228.995 171.611 C 229.588 173.035,230.238 174.372,230.439 174.582 C 230.658 174.812,230.763 156.990,230.702 129.782 L 230.600 84.600 212.400 84.400 L 194.200 84.200 194.200 78.000 L 194.200 71.800 237.700 71.698 L 281.200 71.596 281.200 76.582 L 281.200 81.568 282.900 79.942 C 290.995 72.197,303.161 68.915,318.336 70.383 M175.814 90.450 C 175.187 91.852,174.182 94.080,173.580 95.400 C 170.922 101.238,170.215 102.811,168.729 106.200 C 167.861 108.180,166.802 110.565,166.375 111.500 C 165.475 113.474,164.470 115.708,163.091 118.800 C 162.551 120.010,161.702 121.900,161.204 123.000 C 160.706 124.100,159.623 126.530,158.796 128.400 C 157.345 131.682,155.550 135.668,154.022 139.000 L 153.288 140.600 176.708 140.703 C 189.588 140.760,200.201 140.733,200.291 140.642 C 200.464 140.469,200.116 139.647,196.294 131.200 C 195.746 129.990,194.353 126.840,193.198 124.200 C 191.120 119.449,189.275 115.321,188.194 113.000 C 186.685 109.764,184.800 105.508,184.800 105.340 C 184.800 105.236,184.080 103.622,183.200 101.752 C 182.320 99.882,181.600 98.277,181.600 98.185 C 181.600 98.093,180.957 96.619,180.172 94.909 C 179.386 93.199,178.341 90.922,177.849 89.850 L 176.955 87.899 175.814 90.450 M214.862 195.612 C 219.118 196.059,222.870 196.523,223.200 196.643 C 223.530 196.764,225.420 197.124,227.400 197.445 C 229.380 197.766,231.540 198.188,232.200 198.383 C 232.860 198.578,234.930 199.129,236.800 199.608 C 240.290 200.501,247.662 202.886,249.800 203.814 C 250.460 204.100,252.890 205.146,255.200 206.139 C 259.259 207.882,262.681 209.586,265.600 211.318 C 271.820 215.009,277.022 218.800,275.867 218.800 C 275.808 218.800,274.149 218.444,272.180 218.009 C 264.963 216.413,256.903 217.215,247.600 220.454 C 244.959 221.374,244.988 221.361,239.200 224.143 C 223.957 231.468,210.818 244.299,206.361 256.211 C 205.346 258.925,204.324 264.302,204.621 265.366 C 206.116 270.721,209.092 271.285,211.822 266.730 C 214.063 262.991,216.661 259.858,221.066 255.580 C 226.167 250.627,228.519 248.824,237.000 243.364 C 239.244 241.919,247.653 237.600,248.222 237.600 C 248.363 237.600,249.046 237.338,249.740 237.018 C 264.651 230.131,277.391 234.360,276.719 245.973 C 276.536 249.141,272.698 258.400,271.569 258.400 C 271.366 258.400,271.200 258.588,271.200 258.817 C 271.200 259.230,268.760 262.680,266.828 265.000 C 265.186 266.972,257.503 274.542,256.061 275.609 C 255.324 276.154,254.244 276.977,253.661 277.438 C 248.051 281.872,233.640 289.800,232.770 288.930 C 232.412 288.572,233.630 286.295,241.612 272.400 C 244.202 267.890,246.880 263.165,247.561 261.900 C 248.242 260.635,249.358 258.565,250.040 257.300 C 250.722 256.035,251.619 254.370,252.033 253.600 C 256.600 245.112,254.086 238.840,247.344 241.901 C 243.451 243.668,236.479 249.591,232.386 254.609 C 227.589 260.491,225.138 264.104,220.184 272.600 C 218.003 276.340,215.833 279.850,215.361 280.400 C 214.889 280.950,212.893 283.290,210.925 285.600 C 195.919 303.212,183.672 311.278,181.576 304.927 C 181.114 303.528,181.626 297.794,182.383 295.880 C 182.575 295.396,183.134 293.650,183.626 292.000 C 184.408 289.379,185.651 285.994,186.786 283.400 C 192.446 270.456,200.687 255.740,211.539 239.200 C 212.766 237.330,213.866 235.710,213.985 235.600 C 214.784 234.857,218.765 228.317,219.176 227.072 C 221.008 221.521,215.140 216.566,209.587 218.976 C 204.774 221.064,202.531 223.584,193.111 237.486 C 190.394 241.495,178.202 257.288,176.299 259.263 C 176.015 259.558,174.623 261.240,173.206 263.000 C 160.490 278.793,145.348 293.869,133.100 302.931 C 125.607 308.475,122.390 302.960,127.038 292.540 C 127.347 291.846,127.600 291.154,127.600 291.000 C 127.600 290.846,127.847 290.154,128.149 289.460 C 128.451 288.767,129.190 287.030,129.793 285.600 C 132.586 278.966,138.481 267.625,141.228 263.600 C 141.603 263.050,142.597 261.520,143.437 260.200 C 148.381 252.430,154.269 245.283,162.444 237.131 C 169.600 229.995,170.185 228.886,169.211 224.300 C 167.936 218.300,162.777 216.805,157.187 220.817 C 151.585 224.837,145.417 227.607,135.800 230.424 C 132.540 231.379,128.336 233.363,126.482 234.822 C 121.773 238.525,124.280 244.241,130.819 244.708 C 134.148 244.947,134.277 245.076,132.953 246.840 C 131.745 248.450,127.436 254.989,125.772 257.736 C 123.527 261.444,122.838 262.605,122.414 263.400 C 122.179 263.840,121.575 264.920,121.072 265.800 C 118.096 271.006,114.014 278.900,113.986 279.506 C 113.979 279.668,113.625 280.520,113.200 281.400 C 112.775 282.280,112.421 283.153,112.414 283.340 C 112.406 283.526,112.143 284.246,111.829 284.940 C 110.286 288.345,108.800 296.724,108.800 302.016 C 108.800 305.918,108.538 305.882,105.673 301.585 C 102.570 296.931,99.768 291.177,98.380 286.608 C 97.711 284.404,96.999 282.060,96.799 281.400 C 95.296 276.435,95.292 262.307,96.793 257.400 C 96.995 256.740,97.556 254.850,98.040 253.200 C 99.324 248.821,103.367 240.000,104.089 240.000 C 104.260 240.000,104.400 239.766,104.400 239.481 C 104.400 237.352,115.889 224.577,122.200 219.688 C 123.960 218.325,125.580 217.068,125.800 216.897 C 129.612 213.921,140.615 207.795,146.400 205.428 C 147.830 204.843,149.360 204.197,149.800 203.993 C 153.804 202.135,168.461 197.982,173.200 197.363 C 174.190 197.234,175.540 196.971,176.200 196.778 C 176.860 196.585,179.380 196.224,181.800 195.977 C 184.220 195.729,187.460 195.388,189.000 195.218 C 194.711 194.587,206.868 194.773,214.862 195.612 M295.050 238.300 C 296.868 241.093,299.343 245.860,300.396 248.600 C 300.904 249.920,301.548 251.540,301.827 252.200 C 302.106 252.860,302.462 254.120,302.620 255.000 C 302.777 255.880,303.049 256.879,303.224 257.220 C 303.399 257.561,303.840 260.454,304.203 263.649 C 306.970 287.973,292.761 311.636,266.000 327.270 C 262.409 329.368,253.980 333.600,253.392 333.600 C 253.243 333.600,252.554 333.867,251.860 334.194 C 245.363 337.254,232.644 340.738,222.600 342.210 C 220.400 342.532,217.499 342.977,216.154 343.198 C 213.421 343.647,208.800 343.739,208.800 343.344 C 208.800 343.203,209.146 342.348,209.569 341.444 C 209.992 340.540,210.733 338.720,211.215 337.400 C 211.697 336.080,212.341 334.409,212.646 333.686 C 212.951 332.964,213.200 332.181,213.200 331.947 C 213.200 331.713,213.443 330.954,213.740 330.260 C 214.037 329.567,214.658 328.010,215.118 326.800 C 220.682 312.187,222.643 307.390,224.865 302.956 L 226.089 300.512 229.260 300.267 C 231.005 300.133,233.100 299.848,233.916 299.634 C 234.732 299.420,237.470 298.777,240.000 298.206 C 242.530 297.635,244.960 297.011,245.400 296.818 C 245.840 296.626,247.640 295.978,249.400 295.379 C 255.291 293.373,264.439 288.580,269.000 285.111 C 287.461 271.067,297.238 253.336,293.800 240.135 C 292.703 235.924,293.112 235.324,295.050 238.300 M168.235 286.100 C 168.159 286.375,167.807 287.590,167.454 288.800 C 161.600 308.848,170.472 324.484,184.898 319.543 C 189.750 317.882,196.730 311.900,202.334 304.600 C 205.523 300.446,205.643 300.310,205.889 300.555 C 206.003 300.670,205.367 302.886,204.476 305.482 C 200.035 318.418,198.745 330.129,200.734 339.463 C 201.210 341.697,201.600 343.632,201.600 343.763 C 201.600 344.127,193.946 344.027,188.800 343.596 C 178.777 342.756,169.819 341.130,160.200 338.405 C 149.531 335.383,137.915 330.044,128.483 323.828 C 124.996 321.530,125.011 321.188,128.626 320.572 C 136.293 319.264,147.703 311.008,156.200 300.618 C 157.080 299.542,158.358 298.018,159.041 297.231 C 160.057 296.059,163.345 291.624,166.996 286.500 C 167.686 285.532,168.464 285.281,168.235 286.100 " stroke="none" fill="#049bd4" fill-rule="evenodd"></path><path id="path4" d="M306.705 70.283 C 307.202 70.379,307.922 70.375,308.305 70.275 C 308.687 70.175,308.280 70.096,307.400 70.101 C 306.520 70.105,306.207 70.187,306.705 70.283 M313.500 70.282 C 313.995 70.378,314.805 70.378,315.300 70.282 C 315.795 70.187,315.390 70.109,314.400 70.109 C 313.410 70.109,313.005 70.187,313.500 70.282 M194.161 78.000 C 194.161 81.410,194.222 82.805,194.297 81.100 C 194.372 79.395,194.372 76.605,194.297 74.900 C 194.222 73.195,194.161 74.590,194.161 78.000 M307.300 82.676 C 307.685 82.776,308.315 82.776,308.700 82.676 C 309.085 82.575,308.770 82.493,308.000 82.493 C 307.230 82.493,306.915 82.575,307.300 82.676 M311.905 82.683 C 312.402 82.779,313.122 82.775,313.505 82.675 C 313.887 82.575,313.480 82.496,312.600 82.501 C 311.720 82.505,311.407 82.587,311.905 82.683 M302.600 83.200 C 302.096 83.417,302.022 83.544,302.400 83.544 C 302.730 83.544,303.360 83.389,303.800 83.200 C 304.304 82.983,304.378 82.856,304.000 82.856 C 303.670 82.856,303.040 83.011,302.600 83.200 M244.594 133.200 C 244.594 160.150,244.642 171.175,244.700 157.700 C 244.758 144.225,244.758 122.175,244.700 108.700 C 244.642 95.225,244.594 106.250,244.594 133.200 M287.693 98.000 C 287.693 98.770,287.775 99.085,287.876 98.700 C 287.976 98.315,287.976 97.685,287.876 97.300 C 287.775 96.915,287.693 97.230,287.693 98.000 M273.724 101.000 C 273.726 102.320,273.801 102.812,273.890 102.093 C 273.979 101.374,273.977 100.294,273.886 99.693 C 273.795 99.092,273.722 99.680,273.724 101.000 M287.701 101.400 C 287.705 102.280,287.787 102.593,287.883 102.095 C 287.979 101.598,287.975 100.878,287.875 100.495 C 287.775 100.113,287.696 100.520,287.701 101.400 M120.399 126.719 L 120.597 133.000 120.710 127.031 C 120.772 123.748,120.682 120.922,120.511 120.750 C 120.340 120.578,120.289 123.264,120.399 126.719 M176.800 140.800 L 153.000 141.010 176.900 141.105 C 192.630 141.167,200.800 141.063,200.800 140.800 C 200.800 140.580,200.755 140.443,200.700 140.495 C 200.645 140.548,189.890 140.685,176.800 140.800 M308.500 183.876 C 308.885 183.976,309.515 183.976,309.900 183.876 C 310.285 183.775,309.970 183.693,309.200 183.693 C 308.430 183.693,308.115 183.775,308.500 183.876 M193.111 195.093 C 194.051 195.178,195.491 195.177,196.311 195.091 C 197.130 195.005,196.360 194.936,194.600 194.937 C 192.840 194.939,192.170 195.009,193.111 195.093 M203.900 195.093 C 204.835 195.177,206.365 195.177,207.300 195.093 C 208.235 195.009,207.470 194.940,205.600 194.940 C 203.730 194.940,202.965 195.009,203.900 195.093 M187.905 195.483 C 188.402 195.579,189.122 195.575,189.505 195.475 C 189.887 195.375,189.480 195.296,188.600 195.301 C 187.720 195.305,187.407 195.387,187.905 195.483 M210.705 195.483 C 211.202 195.579,211.922 195.575,212.305 195.475 C 212.687 195.375,212.280 195.296,211.400 195.301 C 210.520 195.305,210.207 195.387,210.705 195.483 M264.300 217.082 C 264.795 217.178,265.605 217.178,266.100 217.082 C 266.595 216.987,266.190 216.909,265.200 216.909 C 264.210 216.909,263.805 216.987,264.300 217.082 M115.375 225.700 L 114.200 227.000 115.500 225.825 C 116.712 224.730,116.984 224.400,116.675 224.400 C 116.606 224.400,116.021 224.985,115.375 225.700 M262.300 233.889 C 263.015 233.978,264.185 233.978,264.900 233.889 C 265.615 233.801,265.030 233.728,263.600 233.728 C 262.170 233.728,261.585 233.801,262.300 233.889 M160.391 239.100 L 157.000 242.600 160.500 239.209 C 163.751 236.059,164.182 235.600,163.891 235.600 C 163.831 235.600,162.256 237.175,160.391 239.100 M189.775 241.868 C 189.159 242.676,188.859 243.211,189.109 243.056 C 189.621 242.740,191.353 240.400,191.075 240.400 C 190.976 240.400,190.391 241.061,189.775 241.868 M131.200 244.956 C 131.200 245.042,131.817 245.185,132.572 245.273 C 133.327 245.361,133.856 245.290,133.748 245.116 C 133.555 244.803,131.200 244.655,131.200 244.956 M254.501 246.200 C 254.505 247.080,254.587 247.393,254.683 246.895 C 254.779 246.398,254.775 245.678,254.675 245.295 C 254.575 244.913,254.496 245.320,254.501 246.200 M237.200 249.000 C 236.228 249.990,235.523 250.800,235.633 250.800 C 235.743 250.800,236.628 249.990,237.600 249.000 C 238.572 248.010,239.277 247.200,239.167 247.200 C 239.057 247.200,238.172 248.010,237.200 249.000 M263.978 267.900 L 262.600 269.400 264.100 268.022 C 265.496 266.738,265.784 266.400,265.478 266.400 C 265.412 266.400,264.737 267.075,263.978 267.900 M304.524 269.400 C 304.526 270.720,304.601 271.212,304.690 270.493 C 304.779 269.774,304.777 268.694,304.686 268.093 C 304.595 267.492,304.522 268.080,304.524 269.400 M259.178 272.700 L 257.800 274.200 259.300 272.822 C 260.696 271.538,260.984 271.200,260.678 271.200 C 260.612 271.200,259.937 271.875,259.178 272.700 M279.978 275.500 L 278.600 277.000 280.100 275.622 C 281.496 274.338,281.784 274.000,281.478 274.000 C 281.412 274.000,280.737 274.675,279.978 275.500 M276.778 278.700 L 275.400 280.200 276.900 278.822 C 278.296 277.538,278.584 277.200,278.278 277.200 C 278.212 277.200,277.537 277.875,276.778 278.700 M157.781 280.500 L 156.200 282.200 157.900 280.619 C 159.481 279.148,159.784 278.800,159.481 278.800 C 159.416 278.800,158.651 279.565,157.781 280.500 M149.978 288.300 L 148.600 289.800 150.100 288.422 C 151.496 287.138,151.784 286.800,151.478 286.800 C 151.412 286.800,150.737 287.475,149.978 288.300 M207.978 288.700 L 206.600 290.200 208.100 288.822 C 209.496 287.538,209.784 287.200,209.478 287.200 C 209.412 287.200,208.737 287.875,207.978 288.700 M108.528 301.200 C 108.528 302.630,108.601 303.215,108.689 302.500 C 108.778 301.785,108.778 300.615,108.689 299.900 C 108.601 299.185,108.528 299.770,108.528 301.200 M165.320 301.600 C 165.320 302.810,165.395 303.305,165.487 302.700 C 165.578 302.095,165.578 301.105,165.487 300.500 C 165.395 299.895,165.320 300.390,165.320 301.600 M126.752 304.912 C 126.945 305.105,127.619 305.198,128.251 305.119 C 129.309 304.987,129.281 304.959,127.900 304.768 C 127.040 304.649,126.550 304.710,126.752 304.912 M287.978 309.500 L 286.600 311.000 288.100 309.622 C 288.925 308.863,289.600 308.188,289.600 308.122 C 289.600 307.816,289.262 308.104,287.978 309.500 M195.200 312.600 C 194.228 313.590,193.523 314.400,193.633 314.400 C 193.743 314.400,194.628 313.590,195.600 312.600 C 196.572 311.610,197.277 310.800,197.167 310.800 C 197.057 310.800,196.172 311.610,195.200 312.600 M281.775 315.700 L 280.600 317.000 281.900 315.825 C 282.615 315.179,283.200 314.594,283.200 314.525 C 283.200 314.216,282.870 314.488,281.775 315.700 M178.705 320.683 C 179.202 320.779,179.922 320.775,180.305 320.675 C 180.687 320.575,180.280 320.496,179.400 320.501 C 178.520 320.505,178.207 320.587,178.705 320.683 M186.100 343.476 C 186.485 343.576,187.115 343.576,187.500 343.476 C 187.885 343.375,187.570 343.293,186.800 343.293 C 186.030 343.293,185.715 343.375,186.100 343.476 M212.705 343.483 C 213.202 343.579,213.922 343.575,214.305 343.475 C 214.687 343.375,214.280 343.296,213.400 343.301 C 212.520 343.305,212.207 343.387,212.705 343.483 M192.500 343.887 C 193.105 343.978,194.095 343.978,194.700 343.887 C 195.305 343.795,194.810 343.720,193.600 343.720 C 192.390 343.720,191.895 343.795,192.500 343.887 " stroke="none" fill="#38b4dd" fill-rule="evenodd"></path></g></svg>